<?xml version="1.0" encoding="UTF-8" standalone="no"?>
<svg
   xmlns:dc="http://purl.org/dc/elements/1.1/"
   xmlns:cc="http://creativecommons.org/ns#"
   xmlns:rdf="http://www.w3.org/1999/02/22-rdf-syntax-ns#"
   xmlns:svg="http://www.w3.org/2000/svg"
   xmlns="http://www.w3.org/2000/svg"
   xml:space="preserve"
   height="255.79393"
   width="255.79483"
   version="1.1"
   id="svg2"><metadata
     id="metadata8"><rdf:RDF><cc:Work
         rdf:about=""><dc:format>image/svg+xml</dc:format><dc:type
           rdf:resource="http://purl.org/dc/dcmitype/StillImage" /><dc:title></dc:title></cc:Work></rdf:RDF></metadata><defs
     id="defs6"><clipPath
       id="clipPath16"
       clipPathUnits="userSpaceOnUse"><path
         id="path18"
         d="m 0,623.626 870.236,0 L 870.236,0 0,0 0,623.626 Z" /></clipPath><clipPath
       id="clipPath28"
       clipPathUnits="userSpaceOnUse"><path
         id="path30"
         d="m 334.418,550.169 c -30.807,-13.03 -58.472,-31.681 -82.224,-55.433 l 0,0 c -23.751,-23.752 -42.401,-51.415 -55.432,-82.222 l 0,0 C 183.267,380.608 176.424,346.728 176.424,311.813 l 0,0 c 0,-34.915 6.843,-68.794 20.338,-100.7 l 0,0 c 13.031,-30.807 31.681,-58.471 55.432,-82.223 l 0,0 c 23.752,-23.752 51.417,-42.403 82.224,-55.433 l 0,0 C 366.323,59.962 400.204,53.12 435.118,53.12 l 0,0 c 34.915,0 68.796,6.842 100.701,20.337 l 0,0 c 30.807,13.03 58.471,31.681 82.222,55.433 l 0,0 c 23.753,23.752 42.403,51.416 55.433,82.223 l 0,0 c 13.495,31.906 20.338,65.785 20.338,100.7 l 0,0 c 0,34.915 -6.843,68.795 -20.338,100.701 l 0,0 c -13.03,30.807 -31.68,58.47 -55.433,82.222 l 0,0 c -23.751,23.752 -51.415,42.403 -82.222,55.433 l 0,0 c -31.905,13.495 -65.786,20.337 -100.701,20.337 l 0,0 c -34.914,0 -68.795,-6.842 -100.7,-20.337 M 253.686,311.813 c 0,100.042 81.39,181.432 181.432,181.432 l 0,0 c 100.043,0 181.432,-81.39 181.432,-181.432 l 0,0 c 0,-100.042 -81.389,-181.432 -181.432,-181.432 l 0,0 c -100.042,0 -181.432,81.39 -181.432,181.432" /></clipPath><radialGradient
       id="radialGradient36"
       spreadMethod="pad"
       gradientTransform="matrix(258.69336,0,0,-258.69336,435.11816,311.81348)"
       gradientUnits="userSpaceOnUse"
       r="1"
       cy="0"
       cx="0"
       fy="0"
       fx="0"><stop
         id="stop38"
         offset="0"
         style="stop-opacity:1;stop-color:#90c84b" /><stop
         id="stop40"
         offset="0.870647"
         style="stop-opacity:1;stop-color:#008c51" /><stop
         id="stop42"
         offset="0.870647"
         style="stop-opacity:1;stop-color:#008c51" /><stop
         id="stop44"
         offset="1"
         style="stop-opacity:1;stop-color:#90c84b" /></radialGradient><clipPath
       id="clipPath52"
       clipPathUnits="userSpaceOnUse"><path
         id="path54"
         d="m 0,623.626 870.236,0 L 870.236,0 0,0 0,623.626 Z" /></clipPath></defs><g
     transform="matrix(1.25,0,0,-1.25,-413.02242,518.40366)"
     id="g10"><g
       transform="matrix(0.36459266,0,0,0.36459266,274.09504,198.72063)"
       id="g4185"><g
         id="g12"><g
           id="g14"
           clip-path="url(#clipPath16)"><g
             id="g20"
             transform="translate(435.1182,493.2451)"><path
               d="m 0,0 c -100.042,0 -181.433,-81.39 -181.433,-181.432 0,-100.043 81.391,-181.432 181.433,-181.432 100.043,0 181.433,81.389 181.433,181.432 C 181.433,-81.39 100.043,0 0,0"
               style="fill:#ffffff;fill-opacity:1;fill-rule:evenodd;stroke:none"
               id="path22" /></g></g></g><g
         id="g24"><g
           id="g26"
           clip-path="url(#clipPath28)"><g
             id="g32"><g
               id="g34"><path
                 d="m 334.418,550.169 c -30.807,-13.03 -58.472,-31.681 -82.224,-55.433 l 0,0 c -23.751,-23.752 -42.401,-51.415 -55.432,-82.222 l 0,0 C 183.267,380.608 176.424,346.728 176.424,311.813 l 0,0 c 0,-34.915 6.843,-68.794 20.338,-100.7 l 0,0 c 13.031,-30.807 31.681,-58.471 55.432,-82.223 l 0,0 c 23.752,-23.752 51.417,-42.403 82.224,-55.433 l 0,0 C 366.323,59.962 400.204,53.12 435.118,53.12 l 0,0 c 34.915,0 68.796,6.842 100.701,20.337 l 0,0 c 30.807,13.03 58.471,31.681 82.222,55.433 l 0,0 c 23.753,23.752 42.403,51.416 55.433,82.223 l 0,0 c 13.495,31.906 20.338,65.785 20.338,100.7 l 0,0 c 0,34.915 -6.843,68.795 -20.338,100.701 l 0,0 c -13.03,30.807 -31.68,58.47 -55.433,82.222 l 0,0 c -23.751,23.752 -51.415,42.403 -82.222,55.433 l 0,0 c -31.905,13.495 -65.786,20.337 -100.701,20.337 l 0,0 c -34.914,0 -68.795,-6.842 -100.7,-20.337 M 253.686,311.813 c 0,100.042 81.39,181.432 181.432,181.432 l 0,0 c 100.043,0 181.432,-81.39 181.432,-181.432 l 0,0 c 0,-100.042 -81.389,-181.432 -181.432,-181.432 l 0,0 c -100.042,0 -181.432,81.39 -181.432,181.432"
                 style="fill:url(#radialGradient36);stroke:none"
                 id="path46" /></g></g></g></g><g
         id="g48"><g
           id="g50"
           clip-path="url(#clipPath52)"><g
             id="g56"
             transform="translate(403.9072,456.1094)"><path
               d="m 0,0 62.424,0 c 9.139,0 16.615,-7.474 16.615,-16.614 l 0,-79.856 79.854,0 c 9.138,0 16.613,-7.475 16.613,-16.614 l 0,-62.427 c 0,-9.139 -7.475,-16.614 -16.613,-16.614 l -79.854,0 0,-79.854 c 0,-9.139 -7.476,-16.614 -16.615,-16.614 l -62.424,0 c -9.141,0 -16.615,7.475 -16.615,16.614 l 0,79.854 -79.857,0 c -9.139,0 -16.613,7.475 -16.613,16.614 l 0,62.427 c 0,9.139 7.474,16.614 16.613,16.614 l 79.857,0 0,79.856 C -16.615,-7.474 -9.141,0 0,0"
               style="fill:#008c51;fill-opacity:1;fill-rule:evenodd;stroke:none"
               id="path58" /></g><g
             id="g60"
             transform="translate(403.8936,505.1938)"><path
               d="m 0,0 c -1.71,-1.503 -5.863,-3.725 -11.63,-5.243 -16.388,-4.315 -27.514,3.661 -31.069,17.165 -4.259,16.177 4.906,28.217 19.254,31.995 5.556,1.462 10.072,1.448 12.231,0.963 l 0.06,-9.084 c -2.421,0.34 -5.668,0.388 -9.466,-0.612 -8.51,-2.241 -13.77,-9.116 -10.992,-19.666 2.5,-9.495 9.7,-13.992 19.266,-11.474 3.235,0.852 6.637,2.5 8.525,3.9 L 0,0 Z"
               style="fill:#ffffff;fill-opacity:1;fill-rule:nonzero;stroke:none"
               id="path62" /></g><g
             id="g64"
             transform="translate(415.8657,553.6694)"><path
               d="M 0,0 4.963,-48.768 -6.107,-49.895 -11.07,-1.127 0,0 Z"
               style="fill:#ffffff;fill-opacity:1;fill-rule:nonzero;stroke:none"
               id="path66" /></g><g
             id="g68"
             transform="translate(440.875,531.4414)"><path
               d="m 0,0 c 0.934,-0.265 2.093,-0.396 3.69,-0.475 5.884,-0.294 9.664,2.504 9.914,7.516 0.225,4.503 -2.764,7.347 -8.285,7.622 C 3.067,14.775 1.53,14.634 0.721,14.456 L 0,0 Z m -9.86,22.775 c 3.443,0.411 8.258,0.608 15.014,0.271 6.828,-0.341 11.63,-1.891 14.769,-4.669 3,-2.626 4.904,-6.798 4.665,-11.593 C 24.349,1.99 22.548,-1.998 19.505,-4.613 15.55,-7.984 9.877,-9.304 3.339,-8.978 c -1.452,0.073 -2.757,0.21 -3.766,0.407 l -0.873,-17.507 -10.969,0.547 2.409,48.306 z"
               style="fill:#ffffff;fill-opacity:1;fill-rule:nonzero;stroke:none"
               id="path70" /></g><g
             id="g72"
             transform="translate(492.415,518.5234)"><path
               d="m 0,0 -0.415,10.832 c -0.134,3.034 -0.09,6.773 -0.083,9.772 L -0.639,20.64 C -2.056,17.998 -3.669,14.579 -5.14,12.025 L -10.507,2.653 0,0 Z m -14.088,-4.994 -6.466,-11.344 -11.141,2.814 26.528,43.859 14.104,-3.562 2.735,-51.249 -11.565,2.92 -0.586,13.125 -13.609,3.437 z"
               style="fill:#ffffff;fill-opacity:1;fill-rule:nonzero;stroke:none"
               id="path74" /></g><g
             id="g76"
             transform="translate(240.0356,194.6963)"><path
               d="m 0,0 c 0.44,-3.321 1.791,-7.959 4.479,-11.847 2.896,-4.187 6.162,-5.201 8.794,-3.381 2.512,1.738 2.624,4.645 1.007,10.691 -2.301,8.312 -1.612,15.244 4.25,19.298 6.879,4.758 16.114,2.656 22.692,-6.854 3.145,-4.547 4.505,-8.558 5.083,-11.695 l -8.764,-3.056 c -0.34,2.154 -1.189,5.811 -3.92,9.758 -2.73,3.948 -5.849,4.621 -7.942,3.173 -2.573,-1.778 -2.137,-4.838 -0.512,-11.406 2.292,-8.939 0.9,-14.854 -4.782,-18.785 -6.76,-4.674 -16.101,-3.442 -23.755,7.624 -3.185,4.606 -5.133,9.979 -5.449,13.121 L 0,0 Z"
               style="fill:#ffffff;fill-opacity:1;fill-rule:nonzero;stroke:none"
               id="path78" /></g><g
             id="g80"
             transform="translate(293.8213,145.5068)"><path
               d="M 0,0 -12.936,12.57 -21.045,4.225 -6.597,-9.814 -12.932,-16.335 -35.361,5.459 -1.2,40.615 20.499,19.53 14.163,13.011 0.445,26.341 -6.651,19.038 6.285,6.469 0,0 Z"
               style="fill:#ffffff;fill-opacity:1;fill-rule:nonzero;stroke:none"
               id="path82" /></g><g
             id="g84"
             transform="translate(330.8447,98.7803)"><path
               d="m 0,0 c -3.527,0.775 -9.893,2.759 -15.43,6.111 -7.653,4.632 -12.023,9.913 -13.62,15.982 -1.673,5.944 -0.474,12.7 3.317,18.821 8.5,13.899 23.462,15.724 37.212,7.399 5.413,-3.276 8.941,-6.857 10.392,-9.096 l -6.586,-6.385 c -1.7,2.389 -4.072,4.931 -8.676,7.718 -7.902,4.783 -16.587,3.92 -22.086,-5.164 -5.235,-8.649 -2.911,-17.028 4.867,-21.736 2.177,-1.318 4.07,-2.124 5.043,-2.202 l 5.31,8.773 -6.471,3.917 4.483,7.403 L 13.372,22.088 0,0 Z"
               style="fill:#ffffff;fill-opacity:1;fill-rule:nonzero;stroke:none"
               id="path86" /></g><g
             id="g88"
             transform="translate(373.7144,132.3135)"><path
               d="m 0,0 -7.852,-27.105 c -2.348,-8.104 -0.468,-13.117 4.981,-14.695 5.589,-1.619 9.796,1.403 12.204,9.716 l 7.853,27.105 10.618,-3.076 -7.65,-26.407 c -4.209,-14.53 -13.548,-19.321 -25.843,-15.76 -11.876,3.441 -16.959,12.032 -12.609,27.051 L -10.688,3.097 0,0 Z"
               style="fill:#ffffff;fill-opacity:1;fill-rule:nonzero;stroke:none"
               id="path90" /></g><g
             id="g92"
             transform="translate(420.5776,101.0342)"><path
               d="m 0,0 4.36,-0.178 c 5.523,-0.226 8.906,2.402 9.081,6.69 0.184,4.505 -2.775,6.883 -7.859,7.163 -2.689,0.11 -4.224,-0.046 -5.029,-0.158 L 0,0 Z m -10.111,21.522 c 3.584,0.436 8.907,0.656 14.793,0.415 7.267,-0.297 12.31,-1.595 15.684,-4.5 2.812,-2.444 4.271,-5.924 4.087,-10.43 C 24.197,0.758 19.589,-3.349 15.312,-4.702 L 15.303,-4.92 c 3.359,-1.52 5.114,-4.868 6.166,-9.424 1.3,-5.585 2.565,-12.043 3.432,-13.97 l -11.337,0.463 c -0.742,1.414 -1.742,5.457 -2.948,11.549 -1.059,6.157 -3.098,7.915 -7.6,8.172 l -3.343,0.137 -0.787,-19.258 -10.973,0.449 1.976,48.324 z"
               style="fill:#ffffff;fill-opacity:1;fill-rule:nonzero;stroke:none"
               id="path94" /></g><g
             id="g96"
             transform="translate(482.4287,99.3271)"><path
               d="m 0,0 -5.022,9.606 c -1.423,2.683 -2.988,6.081 -4.268,8.792 L -9.433,18.37 C -9.579,15.374 -9.569,11.595 -9.802,8.657 L -10.629,-2.11 0,0 Z m -10.584,-10.555 -0.973,-13.021 -11.271,-2.238 5.146,50.998 14.267,2.834 24.459,-45.12 -11.699,-2.323 -6.16,11.605 -13.769,-2.735 z"
               style="fill:#ffffff;fill-opacity:1;fill-rule:nonzero;stroke:none"
               id="path98" /></g><g
             id="g100"
             transform="translate(521.5625,88.5811)"><path
               d="M 0,0 -21.54,44.034 -9.91,49.723 7.13,38.061 C 12.013,34.699 17.31,30.49 21.698,26.483 l 0.197,0.096 c -3.498,5.495 -6.602,11.345 -9.83,17.943 L 5.77,57.393 14.916,61.867 36.456,17.832 26.003,12.719 8.285,25.104 C 3.371,28.53 -2.284,32.808 -6.965,36.914 L -7.129,36.753 C -4.023,31.066 -0.856,24.924 2.659,17.736 L 9.146,4.474 0,0 Z"
               style="fill:#ffffff;fill-opacity:1;fill-rule:nonzero;stroke:none"
               id="path102" /></g><g
             id="g104"
             transform="translate(602.0791,142.415)"><path
               d="m 0,0 c -0.84,-1.94 -3.37,-5.487 -7.502,-9.05 l 0.531,-2.782 c 2.594,1.321 5.703,1.463 7.902,-1.155 3.225,-3.844 0.847,-8.025 -2.328,-10.69 -1.671,-1.402 -3.79,-2.611 -5.679,-2.962 l -1.785,4.389 c 1.256,0.2 2.771,0.997 3.774,1.839 1.114,0.934 1.679,2.073 0.837,3.075 -0.936,1.114 -2.731,0.652 -6.132,-1.632 l -1.708,6.447 c -11.753,-7.491 -23.477,-4.608 -31.613,5.085 -10.754,12.813 -7.602,27.612 3.763,37.15 4.4,3.693 8.491,5.608 10.649,6.091 l 3.931,-8.191 c -2.335,-0.725 -5.291,-2.067 -8.299,-4.592 -6.741,-5.658 -8.565,-14.119 -1.552,-22.475 6.313,-7.521 14.743,-8.516 22.319,-2.156 2.563,2.15 4.937,5.091 6.047,7.163 L 0,0 Z"
               style="fill:#ffffff;fill-opacity:1;fill-rule:nonzero;stroke:none"
               id="path106" /></g><g
             id="g108"
             transform="translate(613.4043,186.9463)"><path
               d="m 0,0 -10.19,3.697 c -2.861,1.02 -6.308,2.47 -9.082,3.607 l -0.087,-0.117 c 1.914,-2.309 4.471,-5.091 6.284,-7.416 L -6.418,-8.732 0,0 Z M -0.685,-14.932 7.388,-25.196 0.582,-34.456 -30.046,6.646 -21.432,18.368 27.07,1.587 20.007,-8.024 7.629,-3.621 -0.685,-14.932 Z"
               style="fill:#ffffff;fill-opacity:1;fill-rule:nonzero;stroke:none"
               id="path110" /></g></g></g></g></g></svg>