{
	"accessors" : 
	[
		{
			"bufferView" : 2,
			"byteOffset" : 0,
			"componentType" : 5126,
			"count" : 7441,
			"max" : 
			[
				1,
				1,
				1,
				1
			],
			"min" : 
			[
				0.006584956776350737,
				0.006584956776350737,
				0.006584956776350737,
				1
			],
			"name" : "accessor_color_m0-PolyPaper16_-548888",
			"type" : "VEC4"
		},
		{
			"bufferView" : 2,
			"byteOffset" : 119056,
			"componentType" : 5126,
			"count" : 11967,
			"max" : 
			[
				1,
				1,
				1,
				1
			],
			"min" : 
			[
				5.692175545846112e-05,
				0.006584956776350737,
				0,
				1
			],
			"name" : "accessor_color_m1-PolyPaper23_-548894",
			"type" : "VEC4"
		},
		{
			"bufferView" : 0,
			"byteOffset" : 0,
			"componentType" : 5123,
			"count" : 12165,
			"max" : 
			[
				7440
			],
			"min" : 
			[
				0
			],
			"name" : "accessor_indices_0_m0-PolyPaper16_-548888",
			"type" : "SCALAR"
		},
		{
			"bufferView" : 0,
			"byteOffset" : 24330,
			"componentType" : 5123,
			"count" : 17697,
			"max" : 
			[
				11966
			],
			"min" : 
			[
				0
			],
			"name" : "accessor_indices_0_m1-PolyPaper23_-548894",
			"type" : "SCALAR"
		},
		{
			"bufferView" : 1,
			"byteOffset" : 89292,
			"componentType" : 5126,
			"count" : 7441,
			"max" : 
			[
				0.9991608,
				0.9977485,
				0.9934153
			],
			"min" : 
			[
				-0.9977201999999999,
				-0.9941875999999999,
				-0.9901743
			],
			"name" : "accessor_normal_m0-PolyPaper16_-548888",
			"type" : "VEC3"
		},
		{
			"bufferView" : 1,
			"byteOffset" : 322188,
			"componentType" : 5126,
			"count" : 11967,
			"max" : 
			[
				0.9982059,
				0.9994994,
				0.9999396
			],
			"min" : 
			[
				-0.9978377,
				-0.9990856,
				-0.998646
			],
			"name" : "accessor_normal_m1-PolyPaper23_-548894",
			"type" : "VEC3"
		},
		{
			"bufferView" : 1,
			"byteOffset" : 0,
			"componentType" : 5126,
			"count" : 7441,
			"max" : 
			[
				0.1641727,
				1.35353,
				-1.045728
			],
			"min" : 
			[
				0.005401989,
				1.244527,
				-1.170999
			],
			"name" : "accessor_position_m0-PolyPaper16_-548888",
			"type" : "VEC3"
		},
		{
			"bufferView" : 1,
			"byteOffset" : 178584,
			"componentType" : 5126,
			"count" : 11967,
			"max" : 
			[
				0.4961811,
				1.576736,
				-1.030306
			],
			"min" : 
			[
				-0.04849535,
				1.259736,
				-1.235141
			],
			"name" : "accessor_position_m1-PolyPaper23_-548894",
			"type" : "VEC3"
		}
	],
	"asset" : 
	{
		"copyright" : "Unknown",
		"generator" : "glTF 1-to-2 Upgrader for Google Blocks",
		"version" : "2.0"
	},
	"bufferViews" : 
	[
		{
			"buffer" : 0,
			"byteLength" : 59724,
			"byteOffset" : 0,
			"name" : "ushortBufferView",
			"target" : 34963
		},
		{
			"buffer" : 0,
			"byteLength" : 465792,
			"byteOffset" : 59724,
			"byteStride" : 12,
			"name" : "vec3BufferView",
			"target" : 34962
		},
		{
			"buffer" : 0,
			"byteLength" : 310528,
			"byteOffset" : 525516,
			"byteStride" : 16,
			"name" : "vec4BufferView",
			"target" : 34962
		}
	],
	"buffers" : 
	[
		{
			"byteLength" : 836044,
			"name" : "model",
			"uri" : "model.bin"
		}
	],
	"materials" : 
	[
		{
			"alphaMode" : "OPAQUE",
			"doubleSided" : false,
			"name" : "BlocksPaper",
			"pbrMetallicRoughness" : 
			{
				"baseColorFactor" : 
				[
					1,
					1,
					1,
					1
				],
				"metallicFactor" : 0,
				"roughnessFactor" : 0.6
			}
		},
		{
			"alphaMode" : "BLEND",
			"doubleSided" : false,
			"name" : "BlocksGlass",
			"pbrMetallicRoughness" : 
			{
				"baseColorFactor" : 
				[
					0.2,
					0.2,
					1,
					0.3
				],
				"metallicFactor" : 1,
				"roughnessFactor" : 0.4
			}
		},
		{
			"alphaMode" : "OPAQUE",
			"doubleSided" : true,
			"name" : "BlocksGem",
			"pbrMetallicRoughness" : 
			{
				"baseColorFactor" : 
				[
					1,
					0.4,
					1,
					1
				],
				"metallicFactor" : 0,
				"roughnessFactor" : 0.1
			}
		}
	],
	"meshes" : 
	[
		{
			"name" : "mesh_m0-PolyPaper16_-548888",
			"primitives" : 
			[
				{
					"attributes" : 
					{
						"COLOR_0" : 0,
						"NORMAL" : 4,
						"POSITION" : 6
					},
					"indices" : 2,
					"material" : 0,
					"mode" : 4
				}
			]
		},
		{
			"name" : "mesh_m1-PolyPaper23_-548894",
			"primitives" : 
			[
				{
					"attributes" : 
					{
						"COLOR_0" : 1,
						"NORMAL" : 5,
						"POSITION" : 7
					},
					"indices" : 3,
					"material" : 0,
					"mode" : 4
				}
			]
		}
	],
	"nodes" : 
	[
		{
			"matrix" : 
			[
				1,
				0,
				0,
				0,
				0,
				1,
				0,
				0,
				0,
				0,
				1,
				0,
				0,
				0,
				0,
				1
			],
			"mesh" : 1,
			"name" : "node_MeshObject-334382080-PolyPaper23"
		},
		{
			"matrix" : 
			[
				1,
				0,
				0,
				0,
				0,
				1,
				0,
				0,
				0,
				0,
				1,
				0,
				0,
				0,
				0,
				1
			],
			"mesh" : 0,
			"name" : "node_MeshObject-39747584-PolyPaper16"
		}
	],
	"scene" : 0,
	"scenes" : 
	[
		{
			"extras" : {},
			"name" : "defaultScene",
			"nodes" : 
			[
				1,
				0
			]
		}
	]
}